<svg xmlns="http://www.w3.org/2000/svg" xmlns:xlink="http://www.w3.org/1999/xlink" preserveAspectRatio="xMidYMid" width="22.062" height="14" viewBox="0 0 22.062 14">
  <defs>
    <style>
      .cls-1 {
        fill: #333;
        fill-rule: evenodd;
      }
    </style>
  </defs>
  <path d="M22.031,11.772 C22.031,12.827 21.452,14.000 20.312,14.000 L2.437,14.000 C1.298,14.000 0.031,12.827 0.031,11.772 L0.031,1.590 C0.031,1.539 0.047,1.495 0.053,1.447 C0.016,1.263 0.056,1.067 0.199,0.915 C0.224,0.888 0.258,0.874 0.287,0.852 C0.713,0.289 1.606,-0.000 2.437,-0.000 L20.312,-0.000 C21.230,-0.000 21.766,0.365 21.947,1.052 C22.015,1.178 22.036,1.314 22.009,1.448 C22.012,1.499 22.031,1.536 22.031,1.590 L22.031,11.772 ZM2.437,12.727 L20.312,12.727 C20.692,12.727 20.656,12.123 20.656,11.772 L20.656,2.656 L11.481,9.449 C11.352,9.553 11.191,9.605 11.031,9.605 C10.871,9.605 10.710,9.553 10.581,9.449 L1.406,2.655 L1.406,11.772 C1.406,12.123 2.058,12.727 2.437,12.727 ZM19.968,1.272 L2.437,1.272 C2.247,1.272 1.989,1.264 1.778,1.300 L11.031,8.126 L20.322,1.272 C20.318,1.272 20.316,1.272 20.312,1.272 L19.968,1.272 Z" class="cls-1"/>
</svg>
