<svg xmlns="http://www.w3.org/2000/svg" xmlns:xlink="http://www.w3.org/1999/xlink" preserveAspectRatio="xMidYMid" width="11.25" height="16.813" viewBox="0 0 11.25 16.813">
  <defs>
    <style>
      .cls-1 {
        fill: #080808;
        fill-rule: evenodd;
      }
    </style>
  </defs>
  <path d="M10.267,8.607 L5.711,16.820 L1.026,8.653 C0.812,8.353 0.626,8.034 0.476,7.695 L0.464,7.673 L0.464,7.673 C0.172,7.006 0.008,6.273 0.008,5.500 C0.008,2.454 2.524,-0.015 5.627,-0.015 C8.731,-0.015 11.246,2.454 11.246,5.500 C11.246,6.653 10.884,7.722 10.267,8.607 ZM5.627,2.934 C4.290,2.934 3.207,3.998 3.207,5.310 C3.207,6.623 4.290,7.686 5.627,7.686 C6.964,7.686 8.048,6.623 8.048,5.310 C8.048,3.998 6.964,2.934 5.627,2.934 Z" class="cls-1"/>
</svg>
