<svg xmlns="http://www.w3.org/2000/svg" xmlns:xlink="http://www.w3.org/1999/xlink" preserveAspectRatio="xMidYMid" width="13.094" height="13.125" viewBox="0 0 13.094 13.125">
  <defs>
    <style>
      .cls-1 {
        fill: #080808;
        fill-rule: evenodd;
      }
    </style>
  </defs>
  <path d="M11.747,6.599 C11.025,6.599 10.440,6.015 10.440,5.295 L10.440,3.992 C10.440,3.464 10.758,3.015 11.211,2.810 L10.274,2.892 C10.169,2.437 9.932,1.987 9.400,2.016 C8.342,2.075 4.226,1.840 3.520,2.075 C2.986,2.252 2.801,2.693 2.691,3.556 L2.514,3.571 C2.560,3.705 2.599,3.843 2.599,3.992 L2.599,5.295 C2.599,6.015 2.014,6.599 1.292,6.599 C0.570,6.599 -0.015,6.015 -0.015,5.295 L-0.015,3.992 C-0.015,3.920 0.015,3.858 0.027,3.789 L0.026,3.789 C0.026,3.787 0.027,3.786 0.028,3.785 C0.050,3.651 0.081,3.524 0.141,3.407 C0.695,1.672 3.270,0.425 4.005,0.241 C4.794,0.045 5.829,0.021 7.010,0.002 C7.756,-0.010 7.611,0.180 8.992,0.131 C10.373,0.082 13.054,2.649 13.054,2.649 L12.002,2.741 C12.597,2.863 13.054,3.363 13.054,3.992 L13.054,5.295 C13.054,6.015 12.468,6.599 11.747,6.599 ZM0.906,10.586 C1.954,9.331 3.710,7.325 4.967,6.403 C6.704,5.130 7.823,6.281 11.948,10.548 C12.518,10.640 12.952,11.083 13.023,11.658 C13.048,11.685 13.067,11.704 13.093,11.731 L13.037,11.731 C13.039,11.759 13.054,11.782 13.054,11.811 C13.054,12.530 12.468,13.114 11.747,13.114 L1.292,13.114 C0.570,13.114 -0.015,12.530 -0.015,11.811 C-0.015,11.228 0.376,10.752 0.906,10.586 ZM6.356,11.273 C7.299,11.273 8.063,10.511 8.063,9.571 C8.063,8.631 7.299,7.870 6.356,7.870 C5.414,7.870 4.650,8.631 4.650,9.571 C4.650,10.511 5.414,11.273 6.356,11.273 Z" class="cls-1"/>
</svg>
