<svg xmlns="http://www.w3.org/2000/svg" xmlns:xlink="http://www.w3.org/1999/xlink" preserveAspectRatio="xMidYMid" width="20" height="20" viewBox="0 0 20 20">
  <defs>
    <style>
      .cls-1 {
        fill: #333;
        fill-rule: evenodd;
      }
    </style>
  </defs>
  <path d="M18.786,3.908 C18.786,3.929 18.784,3.946 18.781,3.960 C18.270,4.310 15.412,6.194 14.877,6.535 C14.821,6.536 14.678,6.518 14.475,6.410 C14.257,6.296 13.624,5.942 12.738,5.438 L12.048,5.046 L11.399,5.500 C10.916,5.840 9.865,6.647 8.267,8.241 C6.661,9.842 5.854,10.886 5.516,11.366 L5.059,12.014 L5.453,12.702 C5.835,13.368 6.292,14.173 6.430,14.435 C6.541,14.645 6.550,14.789 6.550,14.828 C6.550,14.834 6.550,14.839 6.549,14.844 C6.249,15.321 4.310,18.233 3.957,18.747 C3.907,18.756 3.798,18.748 3.662,18.654 C2.563,17.863 1.416,16.740 1.251,16.300 C1.361,13.961 3.423,10.678 7.066,7.045 C10.710,3.412 13.998,1.357 16.335,1.248 C16.777,1.406 17.911,2.550 18.698,3.636 C18.753,3.717 18.786,3.816 18.786,3.908 M19.997,3.908 C19.997,3.578 19.897,3.228 19.685,2.924 C19.664,2.895 17.570,-0.040 16.356,-0.001 C12.948,0.107 8.942,3.411 6.182,6.163 C3.422,8.915 0.108,12.911 -0.001,16.324 L-0.001,16.352 C-0.001,17.546 2.904,19.647 2.933,19.667 C3.723,20.218 4.592,20.017 4.945,19.515 C5.160,19.210 7.387,15.870 7.638,15.461 C7.747,15.282 7.801,15.065 7.801,14.828 C7.801,14.523 7.712,14.185 7.537,13.855 C7.368,13.533 6.812,12.559 6.539,12.083 C6.835,11.663 7.592,10.677 9.151,9.124 C10.698,7.580 11.695,6.818 12.118,6.521 C12.596,6.793 13.572,7.346 13.893,7.515 C14.499,7.834 15.104,7.870 15.512,7.611 C15.897,7.368 19.221,5.156 19.537,4.927 C19.836,4.712 19.997,4.327 19.997,3.908 L19.997,3.908 Z" class="cls-1"/>
</svg>
